<svg width="38" height="38" viewBox="0 0 38 38" fill="none" xmlns="http://www.w3.org/2000/svg">
<path fill-rule="evenodd" clip-rule="evenodd" d="M3 3.59998C2.44772 3.59998 2 4.04769 2 4.59998V28.6C2 29.1523 2.44772 29.6 3 29.6H14.2C15.2078 29.6 16.1744 30.0003 16.887 30.713C17.5996 31.4256 18 32.3922 18 33.4C18 33.9523 18.4477 34.4 19 34.4C19.5523 34.4 20 33.9523 20 33.4C20 32.3922 20.4004 31.4256 21.113 30.713C21.8256 30.0003 22.7922 29.6 23.8 29.6H35C35.5523 29.6 36 29.1523 36 28.6V4.59998C36 4.04769 35.5523 3.59998 35 3.59998H25.4C23.4374 3.59998 21.5552 4.37962 20.1674 5.76739C19.7102 6.22456 19.3191 6.73541 19 7.2851C18.681 6.73541 18.2898 6.22456 17.8326 5.76739C16.4448 4.37962 14.5626 3.59998 12.6 3.59998H3ZM20 29.0182C21.0511 28.1065 22.3995 27.6 23.8 27.6H34V5.59998H25.4C23.9678 5.59998 22.5943 6.1689 21.5816 7.1816C20.5689 8.19429 20 9.56781 20 11V29.0182ZM18 29.0182V11C18 9.56781 17.4311 8.19429 16.4184 7.1816C15.4057 6.1689 14.0322 5.59998 12.6 5.59998H4V27.6H14.2C15.6005 27.6 16.9489 28.1065 18 29.0182Z" fill="#6FCF97"/>
</svg>
