<svg width="38" height="38" viewBox="0 0 38 38" fill="none" xmlns="http://www.w3.org/2000/svg">
<path fill-rule="evenodd" clip-rule="evenodd" d="M28.5996 5.19995C29.1519 5.19995 29.5996 5.64767 29.5996 6.19995V31.8C29.5996 32.3522 29.1519 32.8 28.5996 32.8C28.0473 32.8 27.5996 32.3522 27.5996 31.8V6.19995C27.5996 5.64767 28.0473 5.19995 28.5996 5.19995ZM19 14.8C19.5523 14.8 20 15.2478 20 15.8V31.8C20 32.3523 19.5523 32.8 19 32.8C18.4477 32.8 18 32.3523 18 31.8V15.8C18 15.2478 18.4477 14.8 19 14.8ZM10.4004 25.4C10.4004 24.8477 9.95268 24.4 9.40039 24.4C8.84811 24.4 8.40039 24.8477 8.40039 25.4V31.8C8.40039 32.3523 8.84811 32.8 9.40039 32.8C9.95268 32.8 10.4004 32.3523 10.4004 31.8V25.4Z" fill="#6FCF97"/>
</svg>
