<svg width="38" height="38" viewBox="0 0 38 38" fill="none" xmlns="http://www.w3.org/2000/svg">
<path fill-rule="evenodd" clip-rule="evenodd" d="M19.5 5C12.0442 5 6.00002 11.0442 6.00002 18.5C6.00002 20.9256 6.63882 23.1989 7.75666 25.1642C7.89896 25.4144 7.92657 25.7137 7.83242 25.9857L5.58414 32.4807L12.5095 30.4031C12.7594 30.3282 13.0286 30.3538 13.2598 30.4746C15.1251 31.4487 17.2467 32 19.5 32C26.9559 32 33 25.9558 33 18.5C33 11.0442 26.9559 5 19.5 5ZM4.00002 18.5C4.00002 9.93959 10.9396 3 19.5 3C28.0604 3 35 9.93959 35 18.5C35 27.0604 28.0604 34 19.5 34C17.0634 34 14.7556 33.4371 12.7021 32.4334L4.28737 34.9578C3.92782 35.0657 3.53813 34.9631 3.2783 34.6922C3.01846 34.4213 2.93224 34.0276 3.05504 33.6729L5.79728 25.7508C4.64973 23.5864 4.00002 21.1177 4.00002 18.5Z" fill="#6FCF97"/>
</svg>
