<svg width="38" height="38" viewBox="0 0 38 38" fill="none" xmlns="http://www.w3.org/2000/svg">
<path fill-rule="evenodd" clip-rule="evenodd" d="M11.9072 26.3116C12.2977 25.921 12.9308 25.921 13.3214 26.3116L19.0143 32.0045L24.7072 26.3116C25.0977 25.921 25.7308 25.921 26.1214 26.3116C26.5119 26.7021 26.5119 27.3353 26.1214 27.7258L19.7214 34.1258C19.5338 34.3133 19.2795 34.4187 19.0143 34.4187C18.749 34.4187 18.4947 34.3133 18.3072 34.1258L11.9072 27.7258C11.5166 27.3353 11.5166 26.7021 11.9072 26.3116Z" fill="#6FCF97"/>
<path fill-rule="evenodd" clip-rule="evenodd" d="M19.0146 18.0187C19.5669 18.0187 20.0146 18.4664 20.0146 19.0187V33.4187C20.0146 33.971 19.5669 34.4187 19.0146 34.4187C18.4624 34.4187 18.0146 33.971 18.0146 33.4187V19.0187C18.0146 18.4664 18.4624 18.0187 19.0146 18.0187Z" fill="#6FCF97"/>
<path fill-rule="evenodd" clip-rule="evenodd" d="M13.7044 3.60889C15.7905 3.53387 17.8664 3.93307 19.7759 4.77644C21.6854 5.6198 23.3786 6.88535 24.7282 8.47781C25.909 9.87115 26.7998 11.483 27.3517 13.2186L28.614 13.2186C28.6142 13.2186 28.6137 13.2186 28.614 13.2186M28.614 13.2186C30.5268 13.2173 32.3911 13.8254 33.9349 14.9548C35.4789 16.0844 36.6228 17.6766 37.2007 19.5003C37.7785 21.3241 37.7601 23.2845 37.1483 25.0971C36.5364 26.9097 35.3629 28.4802 33.798 29.5806C33.3462 29.8983 32.7224 29.7896 32.4047 29.3378C32.0871 28.8861 32.1957 28.2623 32.6475 27.9446C33.8647 27.0887 34.7774 25.8672 35.2533 24.4574C35.7292 23.0476 35.7435 21.5228 35.2941 20.1044C34.8447 18.6859 33.9549 17.4475 32.754 16.569C31.5531 15.6905 30.1035 15.2175 28.6155 15.2186H26.5987C26.1422 15.2186 25.7436 14.9094 25.6301 14.4672C25.1865 12.7383 24.3564 11.1326 23.2024 9.77088C22.0484 8.40921 20.6006 7.32707 18.9678 6.60593C17.3351 5.8848 15.5601 5.54345 13.7763 5.6076C11.9926 5.67175 10.2466 6.13971 8.66991 6.97627C7.09319 7.81282 5.7268 8.99616 4.67359 10.4372C3.62039 11.8783 2.90782 13.5395 2.58953 15.2957C2.27123 17.052 2.35552 18.8576 2.83603 20.5766C3.31654 22.2956 4.18075 23.8832 5.36362 25.2199C5.72962 25.6335 5.69104 26.2655 5.27744 26.6315C4.86385 26.9975 4.23186 26.9589 3.86586 26.5453C2.48251 24.9821 1.47181 23.1254 0.909862 21.1151C0.34791 19.1047 0.249343 16.9931 0.621582 14.9391C0.993822 12.8851 1.82717 10.9424 3.05888 9.25708C4.2906 7.57179 5.88858 6.18788 7.73254 5.20954C9.57649 4.23119 11.6184 3.68391 13.7044 3.60889" fill="#6FCF97"/>
</svg>
