<svg width="38" height="38" viewBox="0 0 38 38" fill="none" xmlns="http://www.w3.org/2000/svg">
<path fill-rule="evenodd" clip-rule="evenodd" d="M30.3077 2.29289C29.9172 1.90237 29.284 1.90237 28.8935 2.29289L12.8935 18.2929C12.7059 18.4804 12.6006 18.7348 12.6006 19V25.4C12.6006 25.9523 13.0483 26.4 13.6006 26.4H20.0006C20.2658 26.4 20.5202 26.2946 20.7077 26.1071L36.7077 10.1071C37.0982 9.71658 37.0982 9.08342 36.7077 8.69289L30.3077 2.29289ZM14.6006 24.4V19.4142L29.6006 4.41421L34.5864 9.4L19.5864 24.4H14.6006ZM5.64436 7.84444C6.05694 7.43186 6.61652 7.20007 7.2 7.20007H15.744C16.2963 7.20007 16.744 6.75236 16.744 6.20007C16.744 5.64779 16.2963 5.20007 15.744 5.20007H7.2C6.08609 5.20007 5.0178 5.64257 4.23015 6.43022C3.4425 7.21788 3 8.28616 3 9.40007V31.8001C3 32.914 3.4425 33.9823 4.23015 34.7699C5.0178 35.5576 6.08609 36.0001 7.2 36.0001H29.6C30.7139 36.0001 31.7822 35.5576 32.5698 34.7699C33.3575 33.9823 33.8 32.914 33.8 31.8001V23.2561C33.8 22.7038 33.3523 22.2561 32.8 22.2561C32.2477 22.2561 31.8 22.7038 31.8 23.2561V31.8001C31.8 32.3835 31.5682 32.9431 31.1556 33.3557C30.7431 33.7683 30.1835 34.0001 29.6 34.0001H7.2C6.61652 34.0001 6.05695 33.7683 5.64436 33.3557C5.23178 32.9431 5 32.3835 5 31.8001V9.40007C5 8.8166 5.23179 8.25702 5.64436 7.84444Z" fill="#6FCF97"/>
</svg>
