<svg width="38" height="38" viewBox="0 0 38 38" fill="none" xmlns="http://www.w3.org/2000/svg">
<path fill-rule="evenodd" clip-rule="evenodd" d="M3.59961 4.59998C3.59961 4.04769 4.04732 3.59998 4.59961 3.59998H15.7996C16.3519 3.59998 16.7996 4.04769 16.7996 4.59998V15.8C16.7996 16.3523 16.3519 16.8 15.7996 16.8H4.59961C4.04732 16.8 3.59961 16.3523 3.59961 15.8V4.59998ZM5.59961 5.59998V14.8H14.7996V5.59998H5.59961ZM21.2002 4.59998C21.2002 4.04769 21.6479 3.59998 22.2002 3.59998H33.4002C33.9525 3.59998 34.4002 4.04769 34.4002 4.59998V15.8C34.4002 16.3523 33.9525 16.8 33.4002 16.8H22.2002C21.6479 16.8 21.2002 16.3523 21.2002 15.8V4.59998ZM23.2002 5.59998V14.8H32.4002V5.59998H23.2002ZM3.59961 22.2C3.59961 21.6477 4.04732 21.2 4.59961 21.2H15.7996C16.3519 21.2 16.7996 21.6477 16.7996 22.2V33.4C16.7996 33.9522 16.3519 34.4 15.7996 34.4H4.59961C4.04732 34.4 3.59961 33.9522 3.59961 33.4V22.2ZM5.59961 23.2V32.4H14.7996V23.2H5.59961ZM21.2002 22.2C21.2002 21.6477 21.6479 21.2 22.2002 21.2H33.4002C33.9525 21.2 34.4002 21.6477 34.4002 22.2V33.4C34.4002 33.9522 33.9525 34.4 33.4002 34.4H22.2002C21.6479 34.4 21.2002 33.9522 21.2002 33.4V22.2ZM23.2002 23.2V32.4H32.4002V23.2H23.2002Z" fill="#6FCF97"/>
</svg>
