<svg width="38" height="38" viewBox="0 0 38 38" fill="none" xmlns="http://www.w3.org/2000/svg">
<path fill-rule="evenodd" clip-rule="evenodd" d="M2 19C2 18.4477 2.44772 18 3 18H12.6C12.9344 18 13.2466 18.1671 13.4321 18.4453L16.3352 22.8H21.6648L24.5679 18.4453C24.7534 18.1671 25.0656 18 25.4 18H35C35.5523 18 36 18.4477 36 19C36 19.5523 35.5523 20 35 20H25.9352L23.0321 24.3547C22.8466 24.6329 22.5344 24.8 22.2 24.8H15.8C15.4656 24.8 15.1534 24.6329 14.9679 24.3547L12.0648 20H3C2.44772 20 2 19.5523 2 19Z" fill="#6FCF97"/>
<path fill-rule="evenodd" clip-rule="evenodd" d="M11.384 5.19995L26.616 5.19995C27.3974 5.20037 28.1637 5.41875 28.8277 5.83054C29.4914 6.24208 30.0272 6.83048 30.3749 7.52965L30.3755 7.53095L35.8942 18.5522C35.9638 18.6912 36 18.8445 36 19V28.5999C36 29.7139 35.5575 30.7821 34.7698 31.5698C33.9822 32.3575 32.9139 32.7999 31.8 32.7999H6.2C5.08609 32.7999 4.0178 32.3575 3.23015 31.5698C2.4425 30.7821 2 29.7139 2 28.5999V19C2 18.8445 2.03624 18.6912 2.10583 18.5522L7.62447 7.53095L7.62525 7.52939C7.97298 6.83033 8.5087 6.24202 9.17226 5.83054C9.83632 5.41875 10.6026 5.20037 11.384 5.19995ZM12 7.19995L9.41417 8.42368L4 19.2363V28.5999C4 29.1834 4.23178 29.743 4.64436 30.1556C5.05695 30.5682 5.61652 30.7999 6.2 30.7999H31.8C32.3835 30.7999 32.9431 30.5682 33.3556 30.1556C33.7682 29.743 34 29.1834 34 28.5999V19.2363L28.5858 8.42368L28.5845 8.42095C28.4023 8.05442 28.1216 7.74596 27.7737 7.53026C27.426 7.31465 27.0251 7.20027 26.616 7.19995M12 7.19995L9.41553 8.42095C9.59767 8.05442 9.87844 7.74596 10.2263 7.53026C10.574 7.31465 10.9749 7.20027 11.384 7.19995M11.384 7.19995H26.616Z" fill="#6FCF97"/>
</svg>
