<svg width="38" height="38" viewBox="0 0 38 38" fill="none" xmlns="http://www.w3.org/2000/svg">
<path fill-rule="evenodd" clip-rule="evenodd" d="M14.0503 6.05025C15.363 4.7375 17.1435 4 19 4C20.8565 4 22.637 4.7375 23.9497 6.05025C25.2625 7.36301 26 9.14348 26 11V16.4H12V11C12 9.14348 12.7375 7.36301 14.0503 6.05025ZM10 16.4V11C10 8.61305 10.9482 6.32387 12.636 4.63604C14.3239 2.94821 16.6131 2 19 2C21.3869 2 23.6761 2.94821 25.364 4.63604C27.0518 6.32387 28 8.61305 28 11V16.4H30.1996C32.5192 16.4 34.3996 18.2804 34.3996 20.6V31.8C34.3996 34.1196 32.5192 36 30.1996 36H7.79961C5.48001 36 3.59961 34.1196 3.59961 31.8V20.6C3.59961 18.2804 5.48001 16.4 7.79961 16.4H10ZM5.59961 20.6C5.59961 19.385 6.58458 18.4 7.79961 18.4H30.1996C31.4146 18.4 32.3996 19.385 32.3996 20.6V31.8C32.3996 33.0151 31.4146 34 30.1996 34H7.79961C6.58458 34 5.59961 33.0151 5.59961 31.8V20.6Z" fill="#6FCF97"/>
</svg>
