<svg width="39" height="39" viewBox="0 0 39 39" fill="none" xmlns="http://www.w3.org/2000/svg">
<path d="M0 19.5C0 10.5574 0 6.08608 2.65678 3.21199C2.83451 3.01972 3.01972 2.83451 3.21199 2.65678C6.08608 0 10.5574 0 19.5 0V0C28.4426 0 32.9139 0 35.788 2.65678C35.9803 2.83451 36.1655 3.01972 36.3432 3.21199C39 6.08608 39 10.5574 39 19.5V19.5C39 28.4426 39 32.9139 36.3432 35.788C36.1655 35.9803 35.9803 36.1655 35.788 36.3432C32.9139 39 28.4426 39 19.5 39V39C10.5574 39 6.08608 39 3.21199 36.3432C3.01972 36.1655 2.83451 35.9803 2.65678 35.788C0 32.9139 0 28.4426 0 19.5V19.5Z" fill="#39B877"/>
<rect width="19" height="6.96775" rx="1" transform="translate(6 24.7022)" fill="white"/>
<rect width="19" height="6.96775" rx="1" transform="translate(10 16.1862)" fill="white"/>
<rect width="19" height="6.96775" rx="1" transform="translate(13 7.66998)" fill="white"/>
</svg>
