<svg width="38" height="38" viewBox="0 0 38 38" fill="none" xmlns="http://www.w3.org/2000/svg">
<path fill-rule="evenodd" clip-rule="evenodd" d="M19 4C10.7157 4 4 10.7157 4 19C4 27.2843 10.7157 34 19 34C27.2843 34 34 27.2843 34 19C34 10.7157 27.2843 4 19 4ZM2 19C2 9.61116 9.61116 2 19 2C28.3888 2 36 9.61116 36 19C36 28.3888 28.3888 36 19 36C9.61116 36 2 28.3888 2 19Z" fill="#6FCF97"/>
<path fill-rule="evenodd" clip-rule="evenodd" d="M19.0004 10.4C14.2507 10.4 10.4004 14.2504 10.4004 19C10.4004 23.7497 14.2507 27.6 19.0004 27.6C23.75 27.6 27.6004 23.7497 27.6004 19C27.6004 14.2504 23.75 10.4 19.0004 10.4ZM8.40039 19C8.40039 13.1458 13.1462 8.40002 19.0004 8.40002C24.8546 8.40002 29.6004 13.1458 29.6004 19C29.6004 24.8542 24.8546 29.6 19.0004 29.6C13.1462 29.6 8.40039 24.8542 8.40039 19Z" fill="#6FCF97"/>
<path fill-rule="evenodd" clip-rule="evenodd" d="M18.9998 16.8C17.7848 16.8 16.7998 17.785 16.7998 19C16.7998 20.215 17.7848 21.2 18.9998 21.2C20.2148 21.2 21.1998 20.215 21.1998 19C21.1998 17.785 20.2148 16.8 18.9998 16.8ZM14.7998 19C14.7998 16.6804 16.6802 14.8 18.9998 14.8C21.3194 14.8 23.1998 16.6804 23.1998 19C23.1998 21.3196 21.3194 23.2 18.9998 23.2C16.6802 23.2 14.7998 21.3196 14.7998 19Z" fill="#6FCF97"/>
</svg>
