<svg width="38" height="38" viewBox="0 0 38 38" fill="none" xmlns="http://www.w3.org/2000/svg">
<path fill-rule="evenodd" clip-rule="evenodd" d="M9.2998 10.25C9.2998 7.39319 11.6576 5.05005 14.5998 5.05005C17.5421 5.05005 19.8998 7.39319 19.8998 10.25C19.8998 13.1069 17.5421 15.4501 14.5998 15.4501C11.6576 15.4501 9.2998 13.1069 9.2998 10.25ZM14.5998 3.05005C10.5833 3.05005 7.2998 6.25857 7.2998 10.25C7.2998 14.2415 10.5833 17.4501 14.5998 17.4501C18.6163 17.4501 21.8998 14.2415 21.8998 10.25C21.8998 6.25857 18.6163 3.05005 14.5998 3.05005ZM8.3 21.65C6.36904 21.65 4.514 22.4048 3.1438 23.7532C1.77306 25.1022 1 26.9353 1 28.85V31.95C1 32.5023 1.44772 32.95 2 32.95C2.55228 32.95 3 32.5023 3 31.95V28.85C3 27.4761 3.55444 26.1552 4.54665 25.1787C5.53941 24.2017 6.88924 23.65 8.3 23.65H20.9C22.3108 23.65 23.6606 24.2017 24.6533 25.1787C25.6456 26.1552 26.2 27.4761 26.2 28.85V31.95C26.2 32.5023 26.6477 32.95 27.2 32.95C27.7523 32.95 28.2 32.5023 28.2 31.95V28.85C28.2 26.9353 27.4269 25.1022 26.0562 23.7532C24.686 22.4048 22.831 21.65 20.9 21.65H8.3ZM30.9556 22.6052C31.0916 22.0699 31.6358 21.7462 32.1711 21.8822C33.734 22.2794 35.1217 23.1769 36.1145 24.4372C37.1076 25.6979 37.6486 27.2498 37.6498 28.8492V28.8499V31.9499C37.6498 32.5022 37.2021 32.9499 36.6498 32.9499C36.0975 32.9499 35.6498 32.5022 35.6498 31.9499V28.8507V28.8504C35.6489 27.7025 35.2607 26.5855 34.5434 25.6748C33.8258 24.7638 32.8187 24.1104 31.6785 23.8206C31.1433 23.6846 30.8196 23.1404 30.9556 22.6052ZM25.8693 3.28177C25.3338 3.14683 24.7903 3.47158 24.6553 4.00713C24.5204 4.54267 24.8451 5.08621 25.3807 5.22115C26.5239 5.50922 27.5341 6.1628 28.2539 7.07533C28.9734 7.98757 29.3623 9.10724 29.3623 10.2577C29.3623 11.4082 28.9734 12.5279 28.2539 13.4401C27.5341 14.3526 26.5239 15.0062 25.3807 15.2943C24.8451 15.4292 24.5204 15.9728 24.6553 16.5083C24.7903 17.0439 25.3338 17.3686 25.8693 17.2337C27.4364 16.8388 28.8284 15.9411 29.8242 14.6787C30.8202 13.4159 31.3623 11.8606 31.3623 10.2577C31.3623 8.65486 30.8202 7.09951 29.8242 5.83676C28.8284 4.5743 27.4364 3.67664 25.8693 3.28177Z" fill="#6FCF97"/>
</svg>
