<?xml version="1.0" standalone="no"?>
<!DOCTYPE svg PUBLIC "-//W3C//DTD SVG 20010904//EN"
 "http://www.w3.org/TR/2001/REC-SVG-20010904/DTD/svg10.dtd">
<svg version="1.0" xmlns="http://www.w3.org/2000/svg"
 width="512.000000pt" height="512.000000pt" viewBox="0 0 512.000000 512.000000"
 preserveAspectRatio="xMidYMid meet">
<metadata>
Created by potrace 1.11, written by Peter Selinger 2001-2013
</metadata>
<g transform="translate(0.000000,512.000000) scale(0.100000,-0.100000)"
fill="#000000" stroke="none">
<path d="M1705 5114 c-731 -29 -1037 -115 -1297 -363 -246 -234 -343 -498
-388 -1056 -17 -203 -25 -1688 -11 -2019 13 -303 23 -419 52 -595 52 -313 152
-526 329 -702 251 -248 557 -338 1250 -369 291 -13 1549 -13 1840 0 701 31
1006 123 1261 380 169 171 266 383 318 690 48 285 61 595 61 1480 0 890 -12
1186 -61 1479 -54 325 -149 521 -342 708 -228 220 -487 309 -1022 354 -128 10
-1778 21 -1990 13z m2453 -1038 l37 -34 3 -374 c2 -356 1 -374 -17 -405 -42
-68 42 -64 -1242 -61 l-1161 3 -34 37 -34 38 0 371 c0 405 0 406 59 442 24 15
132 16 1189 17 l1162 0 38 -34z m-411 -1102 c62 -45 63 -54 63 -434 0 -314 -2
-349 -19 -386 -36 -79 54 -74 -1231 -74 -1252 0 -1185 -3 -1227 58 -16 25 -18
59 -21 372 -2 190 0 359 3 377 8 43 49 91 88 102 19 6 498 9 1174 8 1138 -2
1142 -2 1170 -23z m-540 -1111 c20 -9 44 -30 54 -47 18 -29 19 -56 19 -396 0
-340 -1 -367 -19 -396 -41 -68 34 -64 -1225 -64 -1251 0 -1186 -3 -1226 62
-19 31 -20 50 -20 396 0 297 3 368 14 391 16 30 49 55 81 64 11 2 530 5 1153
6 1040 1 1137 0 1169 -16z"/>
</g>
</svg>
